<svg width="101" height="119" viewBox="0 0 101 119" fill="none" xmlns="http://www.w3.org/2000/svg">
<path d="M48.5014 0.65625C21.7119 0.65625 0 28.4005 0 62.6092C0 69.3523 0.843466 75.8488 2.4087 81.8897L2.4171 81.8522C2.9695 78.5927 3.71295 75.3908 4.64116 72.2736L4.68732 72.1128C5.04401 70.9228 5.43847 69.7436 5.84971 68.5751L6.2022 67.6049C6.53791 66.6883 6.8946 65.7824 7.26388 64.8873C7.41495 64.5228 7.55762 64.1583 7.71708 63.7992C7.80101 63.5955 7.90172 63.4079 7.98565 63.2095C8.38011 62.3197 8.78296 61.43 9.20259 60.567L9.51732 59.9559C10.0419 58.9107 10.5916 57.8869 11.1665 56.8845L11.3134 56.6165C11.9176 55.582 12.5513 54.5796 13.2059 53.5987L13.6255 52.9662C14.276 52.0175 14.9474 51.0902 15.644 50.195L16.0594 49.6751C16.7976 48.7416 17.5618 47.8422 18.3506 46.9789C21.4559 33.6857 30.9607 24.0105 42.2111 24.0105C46.7389 24.0105 51.2416 25.6722 55.0981 28.69C59.0635 31.8148 62.2746 36.2802 64.3762 41.5919L64.4056 41.6723L64.5734 42.069V42.0851L64.5902 42.0958C66.9436 43.9521 69.1463 46.1032 71.1659 48.5173C71.3337 48.7156 71.5058 48.8979 71.6694 49.1015C71.6778 49.1015 71.6946 49.1283 71.6988 49.1337L71.6904 49.1015L71.6862 49.0801V49.064L71.8625 48.6138C73.4445 35.8351 77.8632 26.6263 83.0667 26.6263C86.9861 26.6263 90.4607 31.8525 92.6176 39.8981L92.6386 39.9839L92.6428 39.9946C93.2512 40.8415 93.8471 41.7688 94.422 42.7873L94.4514 42.8409L94.5395 43.2L94.4556 42.7819C87.9848 18.2912 69.8524 0.66697 48.4972 0.66697L48.5014 0.65625ZM41.6571 24.4715C31.8335 24.702 22.4085 33.3426 19.1941 45.3119L19.1437 45.4941C20.882 43.7129 22.727 42.1089 24.6619 40.6968C36.4369 31.8203 51.8501 31.8739 63.5957 40.7825C59.8399 31.9222 52.5551 25.6722 44.7121 24.6806C43.6989 24.5186 42.6781 24.4488 41.6571 24.4715ZM82.924 27.1516C82.3677 27.1688 81.8164 27.2898 81.2875 27.5107C75.9791 30.5232 74.0739 38.6224 72.7647 45.2154L72.6975 45.6013C74.2292 42.278 76.0882 39.0887 78.5556 36.7999C82.0596 33.1175 87.3889 33.289 90.7922 37.084C92.0847 38.8314 91.3839 37.1269 90.9223 35.9048C89.4871 31.8847 86.621 27.0444 82.924 27.1463V27.1516ZM51.8249 39.6837L47.3348 57.2115L47.3264 57.2383L47.3012 57.249L28.4261 63.2095H28.3883L47.0872 69.036C47.5278 69.6257 48.0398 70.1349 48.5979 70.5369H48.6063C48.7825 70.6655 48.963 70.7781 49.1476 70.8853L49.1896 70.9121C49.3616 71.0086 49.5379 71.089 49.7183 71.164L49.8065 71.2069C49.9743 71.2766 50.1422 71.3302 50.31 71.3784L50.4485 71.4213C50.8879 71.5344 51.3347 71.5937 51.7829 71.5982C53.0642 71.6028 54.3179 71.1227 55.3858 70.2183C56.4537 69.314 57.2881 68.026 57.7837 66.5168C58.1194 65.5198 58.2999 64.4263 58.2999 63.2792V63.2203L58.2957 63.1559C58.2915 62.8665 58.2789 62.5824 58.2537 62.2983L58.2495 62.2876C58.2242 62.012 58.1878 61.7383 58.1404 61.4675L58.1362 61.446C58.0428 60.9155 57.9079 60.3983 57.7334 59.9023V59.8862C57.3882 58.8954 56.8917 58.0024 56.273 57.2597V57.2436L51.8249 39.6837ZM65.035 43.0392C65.2364 48.4422 65.1861 54.0061 64.6154 59.4252C63.902 70.2421 59.6217 79.7832 56.3402 89.528L56.2143 89.9568L56.0674 90.4178C62.4039 82.2596 69.3698 74.1229 72.7227 63.1774C74.3299 59.7683 73.2179 55.984 72.2401 52.5857C71.5268 47.8848 67.7542 45.7354 65.035 43.0392ZM90.9349 46.1052L88.4674 60.5134C88.3854 60.8655 88.3196 61.2235 88.2702 61.5854C88.2618 61.6926 88.2408 61.7998 88.2282 61.907C88.1862 62.3015 88.1638 62.6989 88.1611 63.097L88.1527 63.2631H88.1653C88.1653 66.6293 89.4116 69.3523 90.9475 69.3577C91.2132 69.3537 91.4746 69.2711 91.7112 69.1164L91.8245 69.036C91.9274 68.962 92.0256 68.8778 92.1182 68.7841C92.1728 68.7305 92.219 68.6662 92.2693 68.6072C92.494 68.3441 92.6876 68.0408 92.8442 67.7067L92.9701 67.4173C93.0502 67.229 93.123 67.0358 93.1883 66.8384L93.2596 66.624C93.3436 66.3399 93.4191 66.0451 93.4821 65.7342L93.4904 65.7235L93.4946 65.7074L95.19 63.2899L93.4821 60.8457V60.8511L93.3981 60.5134L90.9349 46.1052ZM72.5507 50.6935C75.4461 59.8916 76.1176 70.5637 72.9325 79.7993C70.8763 87.132 66.2729 93.0014 65.0686 100.731C68.1319 101.347 71.2288 101.674 74.3425 101.728C83.4318 101.883 92.5211 99.4765 100.712 94.4111C92.1518 79.0328 83.4192 63.5633 72.5507 50.6935ZM51.7871 55.9304C52.436 55.9304 53.0582 56.2596 53.5171 56.8457C53.9759 57.4317 54.2336 58.2266 54.2336 59.0554C54.2336 59.8842 53.9759 60.679 53.5171 61.2651C53.0582 61.8511 52.436 62.1804 51.7871 62.1804C51.1383 62.1804 50.516 61.8511 50.0572 61.2651C49.5984 60.679 49.3407 59.8842 49.3407 59.0554C49.3407 58.2266 49.5984 57.4317 50.0572 56.8457C50.516 56.2596 51.1383 55.9304 51.7871 55.9304ZM91.0314 57.9137C91.6105 57.9137 92.0763 58.9321 92.0763 60.1971C92.0763 61.4621 91.6105 62.4805 91.0314 62.4805C90.4565 62.4805 89.9907 61.4621 89.9907 60.1971C89.9907 58.9375 90.4523 57.9137 91.0314 57.9137ZM74.0613 58.8999C73.9942 59.5003 73.9229 60.0202 73.8515 60.4544L73.8264 60.5777C73.7844 60.8457 73.734 61.0815 73.6879 61.2638C71.6736 68.8592 68.3375 74.7714 63.7845 81.0804C63.1676 81.938 62.5214 82.7956 61.8584 83.6747C60.2098 85.8584 58.5367 88.0116 56.8395 90.1337C56.3695 90.7233 55.7527 91.5327 55.0561 92.4707C54.6239 94.0091 54.1329 95.7405 53.7216 97.5629C53.537 97.4772 53.3608 97.3967 53.1719 97.3003C44.326 92.9317 38.405 87.0945 38.405 87.0945C38.405 87.0945 42.9622 94.6738 50.6373 101.781C51.3801 102.473 52.1103 103.068 52.8278 103.598C52.5131 109.999 54.7246 116.141 64.7035 117.974C66.4127 118.27 68.1445 118.284 69.8566 118.017L69.8146 117.862C69.8103 117.843 69.8047 117.826 69.7979 117.808C69.7979 117.808 69.0971 117.095 68.2074 115.788C67.2189 114.339 66.394 112.72 65.7568 110.979C65.2248 109.51 64.8494 107.956 64.6405 106.359C64.4229 104.634 64.4144 102.877 64.6154 101.149C64.6867 100.506 64.7832 99.8571 64.9175 99.1871C65.3078 97.1823 65.9876 95.049 67.0451 92.7977L67.0534 92.7816L68.0648 90.6161C72.6933 80.6462 75.6056 73.0615 74.3845 61.4514C74.2933 60.5973 74.1884 59.7465 74.0613 58.8999ZM93.7045 63.0755L93.717 63.2685V63.3221C93.717 63.3918 93.7045 63.4561 93.7045 63.5258C93.7045 63.4507 93.717 63.3757 93.717 63.2953C93.717 63.2203 93.7087 63.1559 93.7045 63.0809V63.0755ZM93.6541 64.5496L93.6457 64.6085L93.6373 64.6836L93.6541 64.5496ZM99.3318 96.3247C88.6185 102.425 76.5036 104.043 64.9553 101.722C64.3678 107.661 66.5667 113.611 70.0496 117.428L70.1 117.481C81.4427 115.16 90.9768 105.855 99.3318 96.3247Z" fill="black"/>
</svg>
